<svg width="278" height="530" viewBox="0 0 278 530" fill="none" xmlns="http://www.w3.org/2000/svg">
<path d="M242.688 0.379341C240.686 -0.553731 238.306 0.313145 237.373 2.31556L222.168 34.9468C221.235 36.9492 222.101 39.3289 224.104 40.262C226.106 41.1951 228.486 40.3282 229.419 38.3258L242.935 9.32021L271.94 22.836C273.943 23.7691 276.322 22.9022 277.256 20.8998C278.189 18.8974 277.322 16.5177 275.319 15.5846L242.688 0.379341ZM1.99991 526C3.38273 529.754 3.38509 529.753 3.38806 529.752C3.38987 529.751 3.39346 529.75 3.39708 529.748C3.40433 529.746 3.41402 529.742 3.42616 529.737C3.45042 529.728 3.48444 529.716 3.52808 529.699C3.61535 529.666 3.74111 529.619 3.90432 529.556C4.23073 529.43 4.70696 529.243 5.32473 528.994C6.56025 528.494 8.36214 527.743 10.6642 526.722C15.2679 524.679 21.8741 521.554 29.9522 517.201C46.1056 508.496 68.1636 494.867 91.8712 475.137C139.301 435.665 193.352 371.75 219.86 274.047L212.14 271.953C186.148 367.75 133.199 430.335 86.7537 468.988C63.5238 488.321 41.9255 501.661 26.157 510.159C18.2742 514.407 11.853 517.442 7.41962 519.409C5.2031 520.393 3.484 521.109 2.32816 521.576C1.75025 521.809 1.31322 521.981 1.02528 522.092C0.881308 522.147 0.77462 522.188 0.706243 522.213C0.672055 522.226 0.647444 522.235 0.632541 522.241C0.62509 522.244 0.620065 522.246 0.617483 522.247C0.616191 522.247 0.616093 522.247 0.615445 522.247C0.615956 522.247 0.617083 522.247 1.99991 526ZM219.86 274.047C246.19 177.003 252.503 109.389 252.187 65.911C252.029 44.1711 250.214 28.4672 248.416 18.1387C247.517 12.9747 246.623 9.15566 245.943 6.59892C245.603 5.3206 245.317 4.35805 245.111 3.70093C245.007 3.37238 244.924 3.12021 244.864 2.94313C244.834 2.85459 244.81 2.78483 244.792 2.73368C244.783 2.70811 244.775 2.68719 244.77 2.6709C244.767 2.66276 244.764 2.65577 244.762 2.64994C244.761 2.64703 244.76 2.64352 244.759 2.64207C244.758 2.63885 244.757 2.63592 240.999 4.00504C237.24 5.37415 237.239 5.3718 237.239 5.36974C237.238 5.36943 237.238 5.36766 237.238 5.36705C237.237 5.36583 237.237 5.36577 237.238 5.36686C237.238 5.36905 237.241 5.37586 237.245 5.38731C237.253 5.41021 237.267 5.45168 237.288 5.51189C237.328 5.63231 237.393 5.82768 237.479 6.09931C237.649 6.64256 237.903 7.49093 238.212 8.65486C238.831 10.9826 239.675 14.5733 240.535 19.5104C242.253 29.3841 244.032 44.6477 244.187 65.9691C244.497 108.613 238.31 175.497 212.14 271.953L219.86 274.047Z" fill="#738AFF"/>
</svg>
